<svg width="30" height="29" viewBox="0 0 30 29" fill="none" xmlns="http://www.w3.org/2000/svg">
<path d="M25 10.8917H13.75C12.3693 10.8917 11.25 11.9712 11.25 13.3027V24.1523C11.25 25.4838 12.3693 26.5633 13.75 26.5633H25C26.3807 26.5633 27.5 25.4838 27.5 24.1523V13.3027C27.5 11.9712 26.3807 10.8917 25 10.8917Z" stroke="#FAEFEF" stroke-width="2" stroke-linecap="round" stroke-linejoin="round"/>
<path d="M6.25 18.1247H5C4.33696 18.1247 3.70107 17.8707 3.23223 17.4186C2.76339 16.9664 2.5 16.3532 2.5 15.7137V4.8642C2.5 4.22476 2.76339 3.61151 3.23223 3.15935C3.70107 2.7072 4.33696 2.45319 5 2.45319H16.25C16.913 2.45319 17.5489 2.7072 18.0178 3.15935C18.4866 3.61151 18.75 4.22476 18.75 4.8642V6.0697" stroke="#FAEFEF" stroke-width="2" stroke-linecap="round" stroke-linejoin="round"/>
</svg>
